<svg width="300" height="460" viewBox="0 0 300 460" fill="none" xmlns="http://www.w3.org/2000/svg">
<path d="M0 460L131.965 460C132.97 459.011 131.462 454.58 117.386 444.766C99.7904 432.497 97.7795 432.902 74.1516 426.835C50.5236 420.768 60.201 422.925 43.6112 416.319C30.3393 411.034 9.00711 386.973 9.56999e-07 375.604L6.35961e-07 403.916C21.0306 418.341 60.5529 447.705 50.3979 449.754C40.2429 451.803 12.5681 444.855 2.14025e-07 441.125L0 460Z" fill="#EBEFF2"/>
<path d="M18.098 320.328L1.72443e-06 307.925L1.86202e-06 295.791C21.6171 298.164 38.2069 309.273 46.3762 320.463C53.1629 333.675 62.589 357.403 71.0096 365.762C78.7257 373.422 102.388 391.377 112.61 400.276C96.02 396.635 81.6924 388.546 74.1516 383.693C67.2031 379.221 44.7423 358.617 39.8408 345.809C35.9195 335.563 23.7118 324.553 18.098 320.328Z" fill="#EBEFF2"/>
<path d="M49.5182 286.219C43.1085 286.219 12.9451 274.625 2.19682e-06 266.266L2.93826e-06 200.879C4.90155 207.62 15.6849 223.286 19.6062 232.022C23.5274 240.759 26.1416 254.807 34.5622 265.592L49.5182 286.219Z" fill="#EBEFF2"/>
<path d="M40.0921 201.958C48.0209 219.937 68.3811 232.248 77.6211 236.181C66.6831 231.514 57.3473 214.934 54.0427 207.216C49.6858 196.835 38.5488 176.678 32.8027 172.028C25.6389 166.231 20.9887 163.535 17.2183 159.355C13.4897 153.243 5.68077 142.341 4.27315 147.626C2.86552 152.911 13.1546 166.096 18.4751 172.028C21.4981 175.399 32.1491 183.946 40.0921 201.958Z" fill="#EBEFF2"/>
<path d="M4.99902e-06 19.1442L4.22394e-06 87.4971C8.75576 102.911 31.8223 135.843 54.0427 144.256L14.0762 76.1723C36.5982 77.143 57.5617 89.6991 65.2283 95.8558C76.5395 105.203 100.821 129.506 107.457 151.94C114.093 174.374 126.309 185.555 131.588 188.341C126.812 174.59 119.522 144.256 113.49 123.898C108.172 105.952 98.6593 91.9011 93.1294 87.4971C76.7909 77.925 68.1189 83.5874 47.3816 62.0164C29.1197 43.0204 9.46795 24.3123 4.99902e-06 19.1442Z" fill="#EBEFF2"/>
<path d="M49.5182 0.269654L32.4256 0.269654C45.8986 3.93671 86.1331 36.3111 104.566 52.0399C127.063 69.8359 134.436 113.562 143.653 137.649C150.984 161.692 169.644 211.449 185.63 218.136C201.617 224.823 218.349 239.617 224.717 246.178C238.793 266.536 279.723 283.029 299.874 287.163L299.874 271.659C291.705 272.063 273.104 270.203 264.055 259.525L263.682 259.085C252.366 245.73 235.215 225.49 207.122 207.755C184.399 193.41 178.634 175.803 178.592 168.793C182.656 165.107 194.629 160.973 210.012 173.916C229.242 190.094 235.526 188.476 254.755 189.959C270.138 191.145 291.244 215.889 299.874 228.113L299.874 216.114L291.956 199.531C286.527 182.059 274.361 175.174 268.957 173.916C238.039 174.994 225.848 173.916 203.603 157.737C184.683 143.978 161.248 106.686 153.079 87.4971C144.131 58.3763 129.828 52.3095 120.528 46.5123L49.5182 0.269654Z" fill="#EBEFF2"/>
<path d="M162.002 2.03161e-06L120.528 1.5115e-06C121.533 7.54984 131.588 10.9652 136.489 11.7292C156.472 11.7292 166.15 18.6848 171.805 24.6718C184.541 38.1536 213.783 66.4654 228.864 71.8582C243.946 77.2509 261.877 88.0364 268.957 92.755C263.762 82.7784 248.747 61.2614 230.247 55.0059C211.747 48.7503 177.042 15.7288 162.002 2.03161e-06Z" fill="#EBEFF2"/>
<path d="M246.083 3.08604e-06L228.864 2.87011e-06L228.236 2.86223e-06C239.799 3.37049 266.192 42.8723 272.35 55.0059C277.277 64.7128 292.668 75.1387 299.748 79.1383L299.748 55.9496C297.57 54.0172 291.278 46.6471 283.536 32.626C275.794 18.6049 255.341 5.03324 246.083 3.08604e-06Z" fill="#EBEFF2"/>
<path d="M228.236 107.855C213.959 87.6858 186.426 62.2411 174.445 52.0399C170.297 54.7362 164.642 61.8816 180.1 74.4197C192.467 84.4502 203.268 99.0915 207.122 105.158C214.369 118.685 235.224 145.415 260.662 144.121C286.099 142.827 297.319 152.659 299.748 157.737L299.748 130.1C281.86 131.088 242.513 128.023 228.236 107.855Z" fill="#EBEFF2"/>
<path d="M88.4792 189.959C81.1394 171.947 66.4013 162.052 59.9497 159.355C59.9497 171.435 69.6271 199.936 91.1185 214.496C126.56 223.124 144.231 246.016 153.079 264.783C161.927 283.55 183.242 289.32 192.794 289.859C199.371 289.5 217.201 292.016 235.903 304.959C254.604 317.902 286.342 348.191 299.874 361.717L299.748 323.834C273.858 305.094 247.842 290.129 232.384 285.006C216.925 279.883 192.794 265.592 169.166 250.762C145.538 235.932 143.653 221.237 126.56 212.474C109.468 203.71 97.6539 212.474 88.4792 189.959Z" fill="#EBEFF2"/>
<path d="M224.717 331.114C240.905 348.478 281.567 385.805 299.874 402.298L299.874 419.824C289.526 414.342 263.226 403.08 240.804 401.893C218.383 400.707 198.45 402.388 191.286 403.376C179.681 403.916 154.386 402.837 146.041 394.209C137.696 385.58 125.974 371.02 121.156 364.818C115.249 359.201 100.871 344.892 90.6157 332.597C80.3602 320.301 81.7343 316.688 83.7033 316.419C87.1769 316.257 91.0933 317.56 95.2659 320.059C96.6491 320.887 97.4025 321.137 100.167 324.912C106.2 338.394 113.867 345.944 129.451 361.583C141.815 373.99 175.492 381.131 191.286 382.614C206.745 383.019 238.291 383.208 240.804 380.727C243.318 378.246 240.595 373.132 238.919 370.885C228.613 360.234 233.892 365.358 225.974 358.212C218.178 351.177 181.734 323.294 168.286 313.992C154.839 304.689 159.489 303.476 159.363 302.128C159.263 301.049 164.6 301.678 167.281 302.128C179.681 304.555 208.529 313.749 224.717 331.114Z" fill="#EBEFF2"/>
<path d="M104.943 289.859C97.2014 277.132 75.0732 260.739 64.9769 254.132C76.7071 255.526 103.511 262.896 116.883 281.231C133.599 304.15 137.243 303.341 148.303 326.53C151.655 331.968 159.438 343.436 163.762 345.809C150.817 339.338 114.621 305.768 104.943 289.859Z" fill="#EBEFF2"/>
<path d="M171.68 439.777C195.107 444.846 208.839 455.371 212.777 460L236.782 460C235.274 450.832 225.471 432.982 198.324 434.924C171.177 436.865 155.593 422.88 151.194 415.645C148.261 421.577 155.97 436.378 171.68 439.777Z" fill="#EBEFF2"/>
<path d="M0 460L131.965 460C132.97 459.011 131.462 454.58 117.386 444.766C99.7904 432.497 97.7795 432.902 74.1516 426.835C50.5236 420.768 60.201 422.925 43.6112 416.319C30.3393 411.034 9.00711 386.973 9.56999e-07 375.604L6.35961e-07 403.916C21.0306 418.341 60.5529 447.705 50.3979 449.754C40.2429 451.803 12.5681 444.855 2.14025e-07 441.125L0 460Z" stroke="#1E1E1E"/>
<path d="M18.098 320.328L1.72443e-06 307.925L1.86202e-06 295.791C21.6171 298.164 38.2069 309.273 46.3762 320.463C53.1629 333.675 62.589 357.403 71.0096 365.762C78.7257 373.422 102.388 391.377 112.61 400.276C96.02 396.635 81.6924 388.546 74.1516 383.693C67.2031 379.221 44.7423 358.617 39.8408 345.809C35.9195 335.563 23.7118 324.553 18.098 320.328Z" stroke="#1E1E1E"/>
<path d="M49.5182 286.219C43.1085 286.219 12.9451 274.625 2.19682e-06 266.266L2.93826e-06 200.879C4.90155 207.62 15.6849 223.286 19.6062 232.022C23.5274 240.759 26.1416 254.807 34.5622 265.592L49.5182 286.219Z" stroke="#1E1E1E"/>
<path d="M40.0921 201.958C48.0209 219.937 68.3811 232.248 77.6211 236.181C66.6831 231.514 57.3473 214.934 54.0427 207.216C49.6858 196.835 38.5488 176.678 32.8027 172.028C25.6389 166.231 20.9887 163.535 17.2183 159.355C13.4897 153.243 5.68077 142.341 4.27315 147.626C2.86552 152.911 13.1546 166.096 18.4751 172.028C21.4981 175.399 32.1491 183.946 40.0921 201.958Z" stroke="#1E1E1E"/>
<path d="M4.99902e-06 19.1442L4.22394e-06 87.4971C8.75576 102.911 31.8223 135.843 54.0427 144.256L14.0762 76.1723C36.5982 77.143 57.5617 89.6991 65.2283 95.8558C76.5395 105.203 100.821 129.506 107.457 151.94C114.093 174.374 126.309 185.555 131.588 188.341C126.812 174.59 119.522 144.256 113.49 123.898C108.172 105.952 98.6593 91.9011 93.1294 87.4971C76.7909 77.925 68.1189 83.5874 47.3816 62.0164C29.1197 43.0204 9.46795 24.3123 4.99902e-06 19.1442Z" stroke="#1E1E1E"/>
<path d="M49.5182 0.269654L32.4256 0.269654C45.8986 3.93671 86.1331 36.3111 104.566 52.0399C127.063 69.8359 134.436 113.562 143.653 137.649C150.984 161.692 169.644 211.449 185.63 218.136C201.617 224.823 218.349 239.617 224.717 246.178C238.793 266.536 279.723 283.029 299.874 287.163L299.874 271.659C291.705 272.063 273.104 270.203 264.055 259.525L263.682 259.085C252.366 245.73 235.215 225.49 207.122 207.755C184.399 193.41 178.634 175.803 178.592 168.793C182.656 165.107 194.629 160.973 210.012 173.916C229.242 190.094 235.526 188.476 254.755 189.959C270.138 191.145 291.244 215.889 299.874 228.113L299.874 216.114L291.956 199.531C286.527 182.059 274.361 175.174 268.957 173.916C238.039 174.994 225.848 173.916 203.603 157.737C184.683 143.978 161.248 106.686 153.079 87.4971C144.131 58.3763 129.828 52.3095 120.528 46.5123L49.5182 0.269654Z" stroke="#1E1E1E"/>
<path d="M162.002 2.03161e-06L120.528 1.5115e-06C121.533 7.54984 131.588 10.9652 136.489 11.7292C156.472 11.7292 166.15 18.6848 171.805 24.6718C184.541 38.1536 213.783 66.4654 228.864 71.8582C243.946 77.2509 261.877 88.0364 268.957 92.755C263.762 82.7784 248.747 61.2614 230.247 55.0059C211.747 48.7503 177.042 15.7288 162.002 2.03161e-06Z" stroke="#1E1E1E"/>
<path d="M246.083 3.08604e-06L228.864 2.87011e-06L228.236 2.86223e-06C239.799 3.37049 266.192 42.8723 272.35 55.0059C277.277 64.7128 292.668 75.1387 299.748 79.1383L299.748 55.9496C297.57 54.0172 291.278 46.6471 283.536 32.626C275.794 18.6049 255.341 5.03324 246.083 3.08604e-06Z" stroke="#1E1E1E"/>
<path d="M228.236 107.855C213.959 87.6858 186.426 62.2411 174.445 52.0399C170.297 54.7362 164.642 61.8816 180.1 74.4197C192.467 84.4502 203.268 99.0915 207.122 105.158C214.369 118.685 235.224 145.415 260.662 144.121C286.099 142.827 297.319 152.659 299.748 157.737L299.748 130.1C281.86 131.088 242.513 128.023 228.236 107.855Z" stroke="#1E1E1E"/>
<path d="M88.4792 189.959C81.1394 171.947 66.4013 162.052 59.9497 159.355C59.9497 171.435 69.6271 199.936 91.1185 214.496C126.56 223.124 144.231 246.016 153.079 264.783C161.927 283.55 183.242 289.32 192.794 289.859C199.371 289.5 217.201 292.016 235.903 304.959C254.604 317.902 286.342 348.191 299.874 361.717L299.748 323.834C273.858 305.094 247.842 290.129 232.384 285.006C216.925 279.883 192.794 265.592 169.166 250.762C145.538 235.932 143.653 221.237 126.56 212.474C109.468 203.71 97.6539 212.474 88.4792 189.959Z" stroke="#1E1E1E"/>
<path d="M224.717 331.114C240.905 348.478 281.567 385.805 299.874 402.298L299.874 419.824C289.526 414.342 263.226 403.08 240.804 401.893C218.383 400.707 198.45 402.388 191.286 403.376C179.681 403.916 154.386 402.837 146.041 394.209C137.696 385.58 125.974 371.02 121.156 364.818C115.249 359.201 100.871 344.892 90.6157 332.597C80.3602 320.301 81.7343 316.688 83.7033 316.419C87.1769 316.257 91.0933 317.56 95.2659 320.059C96.6491 320.887 97.4025 321.137 100.167 324.912C106.2 338.394 113.867 345.944 129.451 361.583C141.815 373.99 175.492 381.131 191.286 382.614C206.745 383.019 238.291 383.208 240.804 380.727C243.318 378.246 240.595 373.132 238.919 370.885C228.613 360.234 233.892 365.358 225.974 358.212C218.178 351.177 181.734 323.294 168.286 313.992C154.839 304.689 159.489 303.476 159.363 302.128C159.263 301.049 164.6 301.678 167.281 302.128C179.681 304.555 208.529 313.749 224.717 331.114Z" stroke="#1E1E1E"/>
<path d="M104.943 289.859C97.2014 277.132 75.0732 260.739 64.9769 254.132C76.7071 255.526 103.511 262.896 116.883 281.231C133.599 304.15 137.243 303.341 148.303 326.53C151.655 331.968 159.438 343.436 163.762 345.809C150.817 339.338 114.621 305.768 104.943 289.859Z" stroke="#1E1E1E"/>
<path d="M171.68 439.777C195.107 444.846 208.839 455.371 212.777 460L236.782 460C235.274 450.832 225.471 432.982 198.324 434.924C171.177 436.865 155.593 422.88 151.194 415.645C148.261 421.577 155.97 436.378 171.68 439.777Z" stroke="#1E1E1E"/>
</svg>
